#N canvas 353 68 1248 813 10;
#X obj 36 542 cnv 15 800 60 empty empty empty 20 12 0 14 -233017 -66577
0;
#X obj 51 374 keyup;
#X floatatom 51 398 5 0 0 0 - - -;
#X obj 51 429 sel 97 119 115 101 100 102 116 103 121 104 117 106 107
;
#X msg 51 494 bang;
#X msg 112 494 bang;
#X msg 173 494 bang;
#X msg 234 494 bang;
#X msg 295 494 bang;
#X msg 356 494 bang;
#X msg 417 494 bang;
#X msg 478 494 bang;
#X msg 539 494 bang;
#X msg 600 494 bang;
#X msg 661 494 bang;
#X msg 722 494 bang;
#X msg 783 494 bang;
#X obj 51 554 outlet;
#X obj 112 554 outlet;
#X obj 173 554 outlet;
#X obj 234 554 outlet;
#X obj 783 554 outlet;
#X obj 295 554 outlet;
#X obj 356 554 outlet;
#X obj 417 554 outlet;
#X obj 478 554 outlet;
#X obj 539 554 outlet;
#X obj 600 554 outlet;
#X obj 661 554 outlet;
#X obj 722 554 outlet;
#X text 58 578 60u;
#X text 121 578 61u;
#X text 182 578 62u;
#X text 242 578 63u;
#X text 307 578 64u;
#X text 368 578 65u;
#X text 428 578 66u;
#X text 490 578 67u;
#X text 553 578 68u;
#X text 615 578 69u;
#X text 674 578 70u;
#X text 735 578 71u;
#X text 793 578 72u;
#X obj 21 281 cnv 15 800 60 empty empty empty 20 12 0 14 -233017 -66577
0;
#X obj 824 98 cnv 15 100 150 empty empty empty 20 12 0 14 -233017 -66577
0;
#X obj 30 77 key;
#X floatatom 30 105 5 0 0 0 - - -;
#X msg 30 202 60;
#X obj 30 240 +;
#X obj 91 240 +;
#X msg 91 202 61;
#X obj 152 240 +;
#X msg 152 202 62;
#X obj 213 240 +;
#X obj 274 240 +;
#X obj 335 240 +;
#X obj 396 240 +;
#X obj 457 240 +;
#X obj 518 240 +;
#X obj 579 240 +;
#X obj 640 240 +;
#X obj 701 240 +;
#X obj 762 240 +;
#X obj 30 132 sel 97 119 115 101 100 102 116 103 121 104 117 106 107
;
#X obj 840 121 sel 122 120;
#X floatatom 864 198 5 0 0 0 - - -;
#X msg 871 151 1;
#X msg 840 151 -1;
#X obj 840 181 +;
#X obj 864 223 * 12;
#X msg 213 202 63;
#X msg 274 202 64;
#X msg 335 202 65;
#X msg 396 204 66;
#X msg 457 204 67;
#X msg 518 204 68;
#X msg 579 204 69;
#X msg 640 204 70;
#X msg 701 204 71;
#X msg 762 204 72;
#X obj 30 295 outlet;
#X obj 91 295 outlet;
#X text 39 314 60;
#X text 100 314 61;
#X obj 152 295 outlet;
#X obj 213 295 outlet;
#X text 161 314 62;
#X text 223 314 63;
#X text 286 314 64;
#X text 347 314 65;
#X text 407 314 66;
#X text 469 314 67;
#X text 532 314 68;
#X text 594 314 69;
#X text 653 314 70;
#X text 714 314 71;
#X obj 762 295 outlet;
#X text 780 314 72;
#X obj 274 295 outlet;
#X obj 335 295 outlet;
#X obj 396 295 outlet;
#X obj 457 295 outlet;
#X obj 518 295 outlet;
#X obj 579 295 outlet;
#X obj 640 295 outlet;
#X obj 701 295 outlet;
#X text 742 70 8va / 8vb is controlled by the z and x keys.;
#X text 289 348 midi 60-72 are controlled by keys a-k;
#X text 288 608 midi off 60-72 are controlled by keys a-k as well;
#X obj 40 0 cnv 15 861 57 empty empty Midikeys 340 30 1 36 -233017
-66577 0;
#X obj 970 333 key;
#X obj 1071 333 keyup;
#X obj 970 554 line 0 1000;
#X msg 970 489 1 1000;
#X floatatom 970 585 5 0 0 0 - - -;
#X msg 1072 489 0 1000;
#X msg 1016 489 -1 1000;
#X obj 970 362 sel 99 118;
#X obj 1072 362 sel 99 118;
#X obj 970 403 t b b;
#X msg 1120 488 stop;
#X obj 1007 403 t b b;
#X obj 1072 408 t b b;
#X connect 1 0 2 0;
#X connect 2 0 3 0;
#X connect 3 0 4 0;
#X connect 3 1 5 0;
#X connect 3 2 6 0;
#X connect 3 3 7 0;
#X connect 3 4 8 0;
#X connect 3 5 9 0;
#X connect 3 6 10 0;
#X connect 3 7 11 0;
#X connect 3 8 12 0;
#X connect 3 9 13 0;
#X connect 3 10 14 0;
#X connect 3 11 15 0;
#X connect 3 12 16 0;
#X connect 4 0 17 0;
#X connect 5 0 18 0;
#X connect 6 0 19 0;
#X connect 7 0 20 0;
#X connect 8 0 22 0;
#X connect 9 0 23 0;
#X connect 10 0 24 0;
#X connect 11 0 25 0;
#X connect 12 0 26 0;
#X connect 13 0 27 0;
#X connect 14 0 28 0;
#X connect 15 0 29 0;
#X connect 16 0 21 0;
#X connect 45 0 46 0;
#X connect 46 0 63 0;
#X connect 46 0 64 0;
#X connect 47 0 48 0;
#X connect 48 0 80 0;
#X connect 49 0 81 0;
#X connect 50 0 49 0;
#X connect 51 0 84 0;
#X connect 52 0 51 0;
#X connect 53 0 85 0;
#X connect 54 0 98 0;
#X connect 55 0 99 0;
#X connect 56 0 100 0;
#X connect 57 0 101 0;
#X connect 58 0 102 0;
#X connect 59 0 103 0;
#X connect 60 0 104 0;
#X connect 61 0 105 0;
#X connect 62 0 96 0;
#X connect 63 0 47 0;
#X connect 63 1 50 0;
#X connect 63 2 52 0;
#X connect 63 3 70 0;
#X connect 63 4 71 0;
#X connect 63 5 72 0;
#X connect 63 6 73 0;
#X connect 63 7 74 0;
#X connect 63 8 75 0;
#X connect 63 9 76 0;
#X connect 63 10 77 0;
#X connect 63 11 78 0;
#X connect 63 12 79 0;
#X connect 64 0 67 0;
#X connect 64 1 66 0;
#X connect 65 0 68 1;
#X connect 65 0 69 0;
#X connect 66 0 68 0;
#X connect 67 0 68 0;
#X connect 68 0 65 0;
#X connect 69 0 55 1;
#X connect 69 0 54 1;
#X connect 69 0 53 1;
#X connect 69 0 51 1;
#X connect 69 0 49 1;
#X connect 69 0 48 1;
#X connect 69 0 62 1;
#X connect 69 0 61 1;
#X connect 69 0 60 1;
#X connect 69 0 59 1;
#X connect 69 0 58 1;
#X connect 69 0 57 1;
#X connect 69 0 56 1;
#X connect 70 0 53 0;
#X connect 71 0 54 0;
#X connect 72 0 55 0;
#X connect 73 0 56 0;
#X connect 74 0 57 0;
#X connect 75 0 58 0;
#X connect 76 0 59 0;
#X connect 77 0 60 0;
#X connect 78 0 61 0;
#X connect 79 0 62 0;
#X connect 110 0 117 0;
#X connect 111 0 118 0;
#X connect 112 0 114 0;
#X connect 113 0 112 0;
#X connect 115 0 112 0;
#X connect 116 0 112 0;
#X connect 117 0 119 0;
#X connect 117 1 121 0;
#X connect 118 0 122 0;
#X connect 118 1 122 0;
#X connect 119 0 113 0;
#X connect 120 0 112 0;
#X connect 121 0 116 0;
#X connect 122 0 115 0;
#X connect 122 1 120 0;
#X coords 0 -1 1 1 861 60 1 40 0;
