#N canvas 673 257 450 300 10;
#X obj 101 101 tgl 30 0 empty empty DSP 1 15 0 16 -66577 -204786 -162280
1 1;
#X msg 101 143 dsp \$1;
#X obj 101 167 s pd;
#X obj 101 61 inlet;
#X obj 203 51 receive pd;
#X obj 203 75 route dsp;
#X obj 203 99 change;
#X obj 218 122 value GLOBAL_PDDP_DSP;
#X msg 203 145 set \$1;
#X connect 0 0 1 0;
#X connect 0 0 5 0;
#X connect 1 0 2 0;
#X connect 3 0 0 0;
#X connect 4 0 5 0;
#X connect 5 0 6 0;
#X connect 6 0 7 0;
#X connect 6 0 8 0;
#X connect 7 0 8 0;
#X connect 8 0 0 0;
#X coords 0 -1 1 1 31 31 2 100 100;
